<?xml version="1.0" encoding="UTF-8"?>
<svg width="16px" height="16px" viewBox="0 0 16 16" version="1.1" xmlns="http://www.w3.org/2000/svg" xmlns:xlink="http://www.w3.org/1999/xlink">
    <title>-mockplus-</title>
    <g id="7-切图" stroke="none" stroke-width="1" fill="none" fill-rule="evenodd">
        <g id="切图" transform="translate(-450.000000, -268.000000)" fill-rule="nonzero">
            <g id="编组" transform="translate(54.000000, 264.000000)">
                <g id="icon" transform="translate(396.000000, 4.000000)">
                    <rect id="矩形" fill="#000000" opacity="0" x="0" y="0" width="16" height="16"></rect>
                    <path d="M8.00001609,-4.79616347e-14 C3.58170482,-4.79616347e-14 -1.10134124e-13,3.5817137 -1.10134124e-13,8.00001609 C-1.10134124e-13,12.4183185 3.58170482,16 8,16 C12.4182952,16 16,12.4183185 16,8.00001609 C16,3.5817137 12.4183435,-4.79616347e-14 8.00003218,-4.79616347e-14 L8.00001609,-4.79616347e-14 Z M11.4307414,10.3935911 C11.7171246,10.6800541 11.7171246,11.1443358 11.4307414,11.4307345 C11.1443582,11.717101 10.6799791,11.717101 10.3935959,11.4307345 L8.00001609,9.03714341 L5.60635585,11.4307184 C5.31995655,11.7170849 4.85569009,11.7170849 4.56930689,11.4307184 C4.28282715,11.1443197 4.28282715,10.6800381 4.56930689,10.393575 L6.96287059,8.00001609 L4.5692908,5.60642502 C4.28282715,5.3200424 4.28282715,4.85568033 4.5692908,4.5692977 C4.85569009,4.28291508 5.31995655,4.28291508 5.60633976,4.5692977 L8.00001609,6.96287268 L10.3935959,4.5692977 C10.6799791,4.28291508 11.1443582,4.28291508 11.4307414,4.5692977 C11.7171246,4.85568033 11.7171246,5.3200424 11.4307414,5.60642502 L9.0371455,8.00001609 L11.4307414,10.3935911 Z" id="形状" fill="#999999"></path>
                </g>
            </g>
        </g>
    </g>
</svg>