<svg width="30" height="30" viewBox="0 0 30 30" fill="none" xmlns="http://www.w3.org/2000/svg">
<circle cx="15" cy="15" r="13.25" stroke="white" stroke-width="1.5"/>
<path fill-rule="evenodd" clip-rule="evenodd" d="M22.1356 8.92801L22.3114 8.80958C22.5656 8.50173 22.3915 8.07566 22.1034 7.78759C21.7974 7.48157 21.2369 7.41731 20.9309 7.72336L14.9453 13.7089L8.99415 7.7579L8.93825 7.70705C8.63042 7.45291 8.15789 7.48589 7.86983 7.77397L7.81902 7.82983C7.56486 8.1377 7.6265 8.61197 7.91456 8.90001L13.8657 14.851L7.63167 21.0226L7.58086 21.0785C7.3267 21.3863 7.37577 21.8749 7.66384 22.163C7.96986 22.469 8.5303 22.5333 8.83635 22.2272L22.1356 8.92801ZM22.3622 22.2217C22.6904 21.8934 22.5834 21.3792 22.2773 21.0732V21.0732L17.9551 16.7509L17.899 16.7003C17.5892 16.4481 17.1155 16.4822 16.8066 16.7912C16.4783 17.1194 16.5854 17.6336 16.8914 17.9396L19.2717 20.32L21.2137 22.2619L21.2697 22.3126C21.5795 22.5647 22.0532 22.5306 22.3622 22.2217Z" fill="white"/>
</svg>
