<?xml version="1.0" encoding="UTF-8"?>
<svg width="24px" height="24px" viewBox="0 0 24 24" version="1.1" xmlns="http://www.w3.org/2000/svg" xmlns:xlink="http://www.w3.org/1999/xlink">
    <title>-mockplus-</title>
    <g id="7-切图" stroke="none" stroke-width="1" fill="none" fill-rule="evenodd">
        <g id="切图" transform="translate(-362.000000, -318.000000)">
            <g id="check-circle-fill" transform="translate(362.000000, 318.000000)">
                <rect id="矩形" fill="#000000" fill-rule="nonzero" opacity="0" x="0" y="0" width="24" height="24"></rect>
                <path d="M12,2 C6.47767857,2 2,6.47767857 2,12 C2,17.5223214 6.47767857,22 12,22 C17.5223214,22 22,17.5223214 22,12 C22,6.47767857 17.5223214,2 12,2 Z M16.3191964,8.734375 L11.6183036,15.2522321 C11.3348214,15.6473214 10.7477679,15.6473214 10.4642857,15.2522321 L7.68080357,11.3950893 C7.59598214,11.2767857 7.68080357,11.1116071 7.82589286,11.1116071 L8.87276786,11.1116071 C9.10044643,11.1116071 9.31696429,11.2209821 9.45089286,11.4084821 L11.0401786,13.6138393 L14.5491071,8.74776786 C14.6830357,8.5625 14.8973214,8.45089286 15.1272321,8.45089286 L16.1741071,8.45089286 C16.3191964,8.45089286 16.4040179,8.61607143 16.3191964,8.734375 Z" id="形状" fill="#2F80ED"></path>
            </g>
        </g>
    </g>
</svg>