<?xml version="1.0" encoding="UTF-8"?>
<svg width="24px" height="24px" viewBox="0 0 24 24" version="1.1" xmlns="http://www.w3.org/2000/svg" xmlns:xlink="http://www.w3.org/1999/xlink">
    <title>icon/电话</title>
    <g id="7-切图" stroke="none" stroke-width="1" fill="none" fill-rule="evenodd">
        <g id="切图" transform="translate(-108.000000, -445.000000)" fill-rule="nonzero">
            <g id="icon/电话" transform="translate(108.000000, 445.000000)">
                <rect id="矩形" fill="#000000" opacity="0" x="0" y="0" width="24" height="24"></rect>
                <path d="M8.79375,11.26875 C9.6375,12.975 11.00625,14.38125 12.675,15.24375 L13.96875,13.9125 C14.11875,13.74375 14.3625,13.6875 14.56875,13.7625 C15.225,13.9875 15.9375,14.1 16.66875,14.1 C16.9875,14.1 17.25,14.38125 17.25,14.7 L17.25,16.8 C17.25,17.1375 16.9875,17.4 16.66875,17.4 C11.1375,17.4 6.65625,12.80625 6.65625,7.125 C6.65625,6.7875 6.91875,6.525 7.2375,6.525 L9.3,6.525 C9.61875,6.525 9.88125,6.7875 9.88125,7.125 C9.88125,7.875 9.99375,8.60625 10.21875,9.3 C10.275,9.50625 10.2375,9.75 10.06875,9.91875 L8.79375,11.26875 L8.79375,11.26875 Z M12,3 C7.03125,3 3,7.03125 3,12 C3,16.96875 7.03125,21 12,21 C16.96875,21 21,16.96875 21,12 C21,7.03125 16.96875,3 12,3 M12,1.5 C17.79375,1.5 22.5,6.20625 22.5,12 C22.5,17.79375 17.79375,22.5 12,22.5 C6.20625,22.5 1.5,17.79375 1.5,12 C1.5,6.20625 6.20625,1.5 12,1.5 Z" id="形状" fill="#0091FF"></path>
            </g>
        </g>
    </g>
</svg>