<?xml version="1.0" encoding="UTF-8"?>
<svg width="12px" height="12px" viewBox="0 0 12 12" version="1.1" xmlns="http://www.w3.org/2000/svg" xmlns:xlink="http://www.w3.org/1999/xlink">
    <title>icon</title>
    <g id="1-首页" stroke="none" stroke-width="1" fill="none" fill-rule="evenodd">
        <g id="首页" transform="translate(-20.000000, -251.000000)" fill-rule="nonzero">
            <g id="title" transform="translate(20.000000, 250.000000)">
                <g id="icon" transform="translate(0.000000, 1.000000)">
                    <rect id="矩形" fill="#000000" opacity="0" x="0" y="0" width="12" height="12"></rect>
                    <path d="M8.19140625,4.13671875 L7.64179688,4.13671875 C7.52226562,4.13671875 7.40859375,4.19414063 7.33828125,4.29257813 L5.49609375,6.84726562 L4.66171875,5.68945312 C4.59140625,5.5921875 4.47890625,5.53359375 4.35820313,5.53359375 L3.80859375,5.53359375 C3.73242187,5.53359375 3.68789062,5.6203125 3.73242187,5.68242187 L5.19257812,7.70742187 C5.34140625,7.91484375 5.64960937,7.91484375 5.7984375,7.70742187 L8.26640625,4.28554687 C8.31210937,4.2234375 8.26757812,4.13671875 8.19140625,4.13671875 Z" id="路径" fill="#888888"></path>
                    <path d="M6,0.75 C3.10078125,0.75 0.75,3.10078125 0.75,6 C0.75,8.89921875 3.10078125,11.25 6,11.25 C8.89921875,11.25 11.25,8.89921875 11.25,6 C11.25,3.10078125 8.89921875,0.75 6,0.75 Z M6,10.359375 C3.59296875,10.359375 1.640625,8.40703125 1.640625,6 C1.640625,3.59296875 3.59296875,1.640625 6,1.640625 C8.40703125,1.640625 10.359375,3.59296875 10.359375,6 C10.359375,8.40703125 8.40703125,10.359375 6,10.359375 Z" id="形状" fill="#888888"></path>
                </g>
            </g>
        </g>
    </g>
</svg>