<?xml version="1.0" encoding="UTF-8"?>
<svg width="24px" height="24px" viewBox="0 0 24 24" version="1.1" xmlns="http://www.w3.org/2000/svg" xmlns:xlink="http://www.w3.org/1999/xlink">
    <title>icon/客服</title>
    <g id="4-我的" stroke="none" stroke-width="1" fill="none" fill-rule="evenodd">
        <g id="4-5-16我的订单-待发货-订单详情(已付款)" transform="translate(-47.000000, -983.000000)">
            <g id="拨打电话" transform="translate(0.000000, 971.000000)">
                <g id="icon" transform="translate(47.000000, 12.000000)">
                    <rect id="矩形" fill="#000000" fill-rule="nonzero" opacity="0" x="0" y="0" width="24" height="24"></rect>
                    <path d="M18.94375,13.65 C19.08125,13.30625 18.94375,12.89375 18.6,12.75625 C18.25625,12.61875 17.84375,12.75625 17.70625,13.1 C17.3625,13.71875 15.9875,14.0625 14.0625,14.0625 C13.65,14.0625 13.375,14.3375 13.375,14.75 C13.375,15.1625 13.65,15.4375 14.0625,15.4375 L14.26875,15.4375 C16.05625,15.4375 18.25625,15.09375 18.94375,13.65 L18.94375,13.65 Z" id="路径" fill="#2F80ED"></path>
                    <path d="M20.45625,10.41875 L19.5625,10.075 C19.2875,6.15625 15.9875,2.99375 12,2.99375 C7.94375,2.99375 4.64375,6.225 4.4375,10.2125 L4.025,10.4875 C3.8875,10.625 3.75,10.83125 3.75,11.0375 L3.75,13.925 C3.75,14.3375 4.025,14.6125 4.4375,14.6125 C4.85,14.6125 5.125,14.3375 5.125,13.925 L5.125,11.45 L5.5375,11.175 C5.675,11.0375 5.8125,10.83125 5.8125,10.55625 C5.8125,7.11875 8.5625,4.36875 12,4.36875 C15.4375,4.36875 18.1875,7.11875 18.1875,10.55625 C18.1875,10.83125 18.39375,11.10625 18.66875,11.175 L19.5625,11.51875 L19.5625,13.85625 C19.5625,14.26875 19.8375,14.54375 20.25,14.54375 C20.6625,14.54375 20.9375,14.26875 20.9375,13.85625 L20.9375,10.96875 C20.9375,10.7625 20.73125,10.4875 20.45625,10.41875 Z" id="路径" fill="#2F80ED"></path>
                    <path d="M12,14.95625 C9.86875,14.95625 8.08125,13.2375 8.08125,11.0375 C8.08125,8.90625 9.8,7.11875 12,7.11875 C14.13125,7.11875 15.91875,8.8375 15.91875,11.0375 C15.91875,11.3125 15.91875,11.5875 15.85,11.8625 C15.78125,12.20625 15.9875,12.61875 16.4,12.6875 C16.74375,12.75625 17.15625,12.55 17.225,12.1375 C17.29375,11.79375 17.3625,11.38125 17.3625,11.0375 C17.3625,8.15 15.025,5.74375 12.06875,5.74375 C9.1125,5.74375 6.775,8.08125 6.775,11.0375 C6.775,12.89375 7.7375,14.475 9.18125,15.4375 C6.775,16.2625 4.9875,18.1875 4.50625,20.73125 C4.4375,21.075 4.64375,21.4875 5.05625,21.55625 L5.19375,21.55625 C5.5375,21.55625 5.8125,21.35 5.88125,21.00625 C6.43125,18.1875 8.90625,16.33125 12.06875,16.33125 C12.48125,16.33125 12.75625,16.05625 12.75625,15.64375 C12.6875,15.23125 12.4125,14.95625 12,14.95625 Z M17.225,16.2625 C16.95,16.05625 16.46875,16.05625 16.2625,16.4 C16.05625,16.675 16.05625,17.15625 16.4,17.3625 C17.3625,18.11875 18.53125,19.2875 18.875,21.075 C18.94375,21.41875 19.21875,21.625 19.5625,21.625 L19.7,21.625 C20.04375,21.55625 20.31875,21.2125 20.25,20.8 C19.8375,18.6 18.39375,17.15625 17.225,16.2625 L17.225,16.2625 Z" id="形状" fill="#2F80ED"></path>
                </g>
            </g>
        </g>
    </g>
</svg>