<?xml version="1.0" encoding="UTF-8"?>
<svg width="24px" height="24px" viewBox="0 0 24 24" version="1.1" xmlns="http://www.w3.org/2000/svg" xmlns:xlink="http://www.w3.org/1999/xlink">
    <title>-mockplus-</title>
    <g id="7-切图" stroke="none" stroke-width="1" fill="none" fill-rule="evenodd">
        <g id="切图" transform="translate(-486.000000, -264.000000)" fill-rule="nonzero">
            <g id="编组" transform="translate(54.000000, 264.000000)">
                <g id="icon/选框/垃圾桶" transform="translate(432.000000, 0.000000)">
                    <rect id="矩形" fill="#000000" opacity="0" x="0" y="0" width="24" height="24"></rect>
                    <path d="M6.5,8.17303125 C6.84172619,8.17303125 7.11875,8.45005506 7.11875,8.79178125 L7.11875,17.5 C7.11874999,17.8221567 7.24674976,18.1311137 7.47458119,18.3588806 C7.70241261,18.5866476 8.01140581,18.7145599 8.3335625,18.7144688 L15.6667812,18.7144688 C16.3375138,18.7144688 16.88125,18.1707326 16.88125,17.5 L16.88125,8.79178125 C16.88125,8.45005506 17.1582738,8.17303125 17.5,8.17303125 C17.8417262,8.17303125 18.11875,8.45005506 18.11875,8.79178125 L18.11875,17.5 C18.11875,18.1503025 17.8604183,18.7739704 17.400585,19.2338037 C16.9407516,19.6936371 16.3170838,19.9519688 15.6667813,19.9519688 L8.33321875,19.9519688 C6.9790338,19.9519688 5.88125,18.8541849 5.88125,17.5 L5.88125,8.79178125 C5.88125,8.45005506 6.15827381,8.17303125 6.5,8.17303125 Z M4.50625,6.72928125 C4.50625,6.38755506 4.78327381,6.11053125 5.125,6.11053125 L18.875,6.11053125 C19.2167262,6.11053125 19.49375,6.38755506 19.49375,6.72928125 C19.49375,7.07100744 19.2167262,7.34803125 18.875,7.34803125 L5.125,7.34803125 C4.78327381,7.34803125 4.50625,7.07100744 4.50625,6.72928125 Z M10.1667812,8.975 C10.5085074,8.975 10.7855312,9.25202381 10.7855312,9.59375 L10.7855312,16.46875 C10.7855312,16.8104762 10.5085074,17.0875 10.1667812,17.0875 C9.82505506,17.0875 9.54803125,16.8104762 9.54803125,16.46875 L9.54803125,9.59375 C9.54803125,9.25202381 9.82505506,8.975 10.1667812,8.975 Z M13.8335625,8.975 C14.1752887,8.975 14.4523125,9.25202381 14.4523125,9.59375 L14.4523125,16.46875 C14.4523125,16.8104762 14.1752887,17.0875 13.8335625,17.0875 C13.4918363,17.0875 13.2148125,16.8104762 13.2148125,16.46875 L13.2148125,9.59375 C13.2148125,9.25202381 13.4918363,8.975 13.8335625,8.975 Z M12.4905312,3.7225 C13.8322152,3.73999435 14.9106453,4.83267077 14.9105312,6.17446875 C14.9105312,6.51619494 14.6335074,6.79321875 14.2917812,6.79321875 C13.9500551,6.79321875 13.6730312,6.51619494 13.6730312,6.17446875 C13.6731225,5.85225249 13.5451629,5.54320718 13.3173216,5.31536586 C13.0894803,5.08752455 12.780435,4.95956504 12.4582187,4.95965625 L12.4582187,4.95965625 L11.5417812,4.95965625 C11.2196245,4.95965624 10.9106676,5.08765601 10.6829006,5.31548744 C10.4551336,5.54331886 10.3272213,5.85231206 10.3273125,6.17446875 C10.3273125,6.51619494 10.0502887,6.79321875 9.7085625,6.79321875 C9.36683631,6.79321875 9.0898125,6.51619494 9.0898125,6.17446875 C9.0898841,4.83274695 10.1682072,3.74017898 11.5098125,3.7225 L11.5098125,3.7225 Z" id="形状" fill="#333333"></path>
                </g>
            </g>
        </g>
    </g>
</svg>