<?xml version="1.0" encoding="UTF-8"?>
<svg width="20px" height="20px" viewBox="0 0 20 20" version="1.1" xmlns="http://www.w3.org/2000/svg" xmlns:xlink="http://www.w3.org/1999/xlink">
    <title>icon/地址</title>
    <g id="4-我的" stroke="none" stroke-width="1" fill="none" fill-rule="evenodd">
        <g id="4-5-7我的订单-待付款详情" transform="translate(-18.000000, -161.000000)">
            <g id="2" transform="translate(0.000000, 136.000000)">
                <g id="icon/地址" transform="translate(18.000000, 25.000000)">
                    <rect id="矩形" stroke="#979797" fill="#D8D8D8" opacity="0" x="0.5" y="0.5" width="19" height="19"></rect>
                    <path d="M10,2.5 C11.5187831,2.5 12.8937831,3.11560847 13.8890873,4.1109127 C14.8843915,5.10621694 15.5,6.48121694 15.5,8 C15.5,10.0611473 13.6031023,12.4986135 9.99984758,15.3633076 C6.39665963,12.4983076 4.5,10.0610179 4.5,8 C4.5,6.48121694 5.11560847,5.10621694 6.1109127,4.1109127 C7.10621694,3.11560847 8.48121694,2.5 10,2.5 Z M10,5.5 L10,5.5 L9.79496113,5.50828743 C9.18636995,5.5576903 8.63940296,5.82506313 8.23223305,6.23223305 C7.77982203,6.68464406 7.5,7.30964406 7.5,8 C7.5,8.69035594 7.77982203,9.31535594 8.23223305,9.76776695 C8.68464406,10.220178 9.30964406,10.5 10,10.5 C10.6903559,10.5 11.3153559,10.220178 11.767767,9.76776695 C12.220178,9.31535594 12.5,8.69035594 12.5,8 C12.5,7.30964406 12.220178,6.68464406 11.767767,6.23223305 C11.3153559,5.77982203 10.6903559,5.5 10,5.5 L10,5.5 Z" id="地址" stroke="#333333"></path>
                </g>
            </g>
        </g>
    </g>
</svg>