<?xml version="1.0" encoding="UTF-8"?>
<svg width="24px" height="24px" viewBox="0 0 24 24" version="1.1" xmlns="http://www.w3.org/2000/svg" xmlns:xlink="http://www.w3.org/1999/xlink">
    <title>-mockplus-</title>
    <g id="7-切图" stroke="none" stroke-width="1" fill="none" fill-rule="evenodd">
        <g id="切图" transform="translate(-886.000000, -492.000000)">
            <g id="我的-列表icon" transform="translate(616.000000, 492.000000)">
                <g id="6" transform="translate(270.000000, 0.000000)">
                    <rect id="bg" fill="#000000" fill-rule="nonzero" opacity="0" x="0" y="0" width="24" height="24"></rect>
                    <circle id="椭圆形" stroke="#666666" stroke-width="1.5" cx="12" cy="12" r="9"></circle>
                    <path d="M11.9036559,6.97544265 C12.1919335,7.01972971 12.2398218,7.06761797 12.2690208,7.12678175 L12.2690208,7.12678175 L13.1968626,9.00679446 C13.444488,9.50853837 13.9231495,9.8563063 14.4768568,9.93676468 L14.4768568,9.93676468 L16.551574,10.2382387 C16.6335557,10.2501514 16.7029477,10.2941659 16.7488661,10.3556977 C16.7947844,10.4172295 16.8172292,10.4962786 16.8053166,10.5782603 C16.7958292,10.6435514 16.7650831,10.7038942 16.717838,10.7499467 L16.717838,10.7499467 L15.2165585,12.2133326 C14.8158922,12.6038857 14.6330597,13.1665861 14.7276442,13.718056 L14.7276442,13.718056 L15.0820482,15.7843899 C15.0960524,15.8660404 15.0756354,15.9456373 15.0313047,16.0083227 C14.986974,16.071008 14.9187297,16.1167818 14.8370793,16.1307859 C14.772052,16.141939 14.7051615,16.1313446 14.6467634,16.1006429 L14.6467634,16.1006429 L12.7910799,15.1250523 C12.2958291,14.8646835 11.7041709,14.8646835 11.2089201,15.1250523 L11.2089201,15.1250523 L9.3532366,16.1006429 C9.27990991,16.139193 9.19789953,16.144372 9.12458329,16.1215819 C9.05126705,16.0987918 8.98664495,16.0480325 8.94809483,15.9747058 C8.91739311,15.9163076 8.90679871,15.8494172 8.91795176,15.7843899 L8.91795176,15.7843899 L9.27235577,13.718056 C9.36694027,13.1665861 9.18410784,12.6038857 8.7834415,12.2133326 L8.7834415,12.2133326 L7.28216202,10.7499467 C7.22283948,10.6921216 7.19257129,10.6157255 7.19159003,10.5389551 C7.19060877,10.4621846 7.21891444,10.3850399 7.27673962,10.3257173 C7.3227922,10.2784722 7.38313492,10.2477261 7.44842603,10.2382387 L7.44842603,10.2382387 L9.52314324,9.93676468 C10.0768505,9.8563063 10.555512,9.50853837 10.8031374,9.00679446 L10.8031374,9.00679446 L11.7309792,7.12678175 C11.7676425,7.0524937 11.8309461,7.00009925 11.9036559,6.97544265 Z" id="星形" stroke="#999999" stroke-width="1.4"></path>
                </g>
            </g>
        </g>
    </g>
</svg>