<svg width="24" height="24" viewBox="0 0 24 24" fill="none" xmlns="http://www.w3.org/2000/svg">
<path d="M9.25 18L9.80287 17.4932C9.66081 17.3382 9.46023 17.25 9.25 17.25V18ZM11.2628 20.1958L10.71 20.7026L10.71 20.7026L11.2628 20.1958ZM12.7372 20.1958L12.1843 19.689V19.689L12.7372 20.1958ZM14.75 18V17.25C14.5398 17.25 14.3392 17.3382 14.1971 17.4932L14.75 18ZM5 5.75H19V4.25H5V5.75ZM3.75 6.85714C3.75 6.29706 4.25633 5.75 5 5.75V4.25C3.53453 4.25 2.25 5.36588 2.25 6.85714H3.75ZM3.75 16.1429V6.85714H2.25V16.1429H3.75ZM5 17.25C4.25633 17.25 3.75 16.7029 3.75 16.1429H2.25C2.25 17.6341 3.53453 18.75 5 18.75V17.25ZM9.25 17.25H5V18.75H9.25V17.25ZM11.8157 19.689L9.80287 17.4932L8.69713 18.5068L10.71 20.7026L11.8157 19.689ZM12.1843 19.689C12.0852 19.7971 11.9148 19.7971 11.8157 19.689L10.71 20.7026C11.4036 21.4593 12.5964 21.4593 13.29 20.7026L12.1843 19.689ZM14.1971 17.4932L12.1843 19.689L13.29 20.7026L15.3029 18.5068L14.1971 17.4932ZM19 17.25H14.75V18.75H19V17.25ZM20.25 16.1429C20.25 16.7029 19.7437 17.25 19 17.25V18.75C20.4655 18.75 21.75 17.6341 21.75 16.1429H20.25ZM20.25 6.85714V16.1429H21.75V6.85714H20.25ZM19 5.75C19.7437 5.75 20.25 6.29706 20.25 6.85714H21.75C21.75 5.36588 20.4655 4.25 19 4.25V5.75Z" fill="#666666"/>
<path d="M8 9L16 9" stroke="#999999" stroke-width="1.5" stroke-linecap="round"/>
<path d="M8 13.5H13" stroke="#999999" stroke-width="1.5" stroke-linecap="round"/>
</svg>
