<?xml version="1.0" encoding="UTF-8"?>
<svg width="134px" height="113px" viewBox="0 0 134 113" version="1.1" xmlns="http://www.w3.org/2000/svg" xmlns:xlink="http://www.w3.org/1999/xlink">
    <title>pic/无结果</title>
    <g id="5-缺省页" stroke="none" stroke-width="1" fill="none" fill-rule="evenodd">
        <g id="5-1-1空页面-无结果" transform="translate(-117.000000, -244.000000)">
            <g id="pic/无结果" transform="translate(117.000000, 244.000000)">
                <g id="bg" transform="translate(0.853034, 0.000000)">
                    <path d="M37.7413743,6.90721448 L45.7711939,14.9356674 C66.4074461,7.20883319 90.561611,11.6441901 107.159159,28.2417383 C127.104825,48.1874045 129.486588,79.0458814 114.304447,101.5978 L17.9897139,101.59814 C5.59925076,83.1933295 4.90701279,59.2559721 15.9129999,40.2329698 L14.4068505,38.7270196 C13.6258019,37.945971 13.6258019,36.6796411 14.4068505,35.8985925 C15.1878991,35.1175439 16.454229,35.1175439 17.2352776,35.8985925 L20.8921319,39.5554468 C21.6731805,40.3364953 22.9395104,40.3364953 23.720559,39.5554468 C24.4604998,38.815506 24.499444,37.6400218 23.8373917,36.8542344 L23.720559,36.7270196 L17.588831,30.5952916 C15.8314717,28.8379323 15.8314717,25.9886899 17.588831,24.2313306 C19.3461903,22.4739713 22.1954327,22.4739713 23.952792,24.2313306 L30.3774132,30.6559518 C31.9395104,32.218049 34.4721703,32.218049 36.0342675,30.6559518 C37.5442948,29.1459246 37.594629,26.7289603 36.1852702,25.1584706 L36.0342675,24.9990976 L27.8418793,16.8067094 C25.1082093,14.0730394 25.1082093,9.64088452 27.8418793,6.90721448 C30.5755494,4.17354443 35.0077042,4.17354443 37.7413743,6.90721448 Z" id="形状结合" fill="#F4F4F4"></path>
                    <circle id="椭圆形" stroke="#EEEEEE" stroke-width="2" fill="#FFFFFF" cx="128.146966" cy="91.8569619" r="3"></circle>
                    <circle id="椭圆形备份-4" stroke="#FFFFFF" cx="23.6469659" cy="84.3569619" r="2"></circle>
                    <circle id="椭圆形备份-5" stroke="#E5E5E5" cx="113.646966" cy="82.3569619" r="2"></circle>
                    <g id="星">
                        <path d="M97.6469659,3.85696194 C98.475393,3.85696194 99.1469659,4.52853482 99.1469659,5.35696194 L99.1459659,6.85596194 L100.646966,6.85696194 C101.475393,6.85696194 102.146966,7.52853482 102.146966,8.35696194 C102.146966,9.18538907 101.475393,9.85696194 100.646966,9.85696194 L99.1459659,9.85596194 L99.1469659,11.3569619 C99.1469659,12.1853891 98.475393,12.8569619 97.6469659,12.8569619 C96.8185387,12.8569619 96.1469659,12.1853891 96.1469659,11.3569619 L96.1459659,9.85596194 L94.6469659,9.85696194 C93.8185387,9.85696194 93.1469659,9.18538907 93.1469659,8.35696194 C93.1469659,7.52853482 93.8185387,6.85696194 94.6469659,6.85696194 L96.1459659,6.85596194 L96.1469659,5.35696194 C96.1469659,4.52853482 96.8185387,3.85696194 97.6469659,3.85696194 Z" id="形状结合" fill="#EEEEEE" transform="translate(97.646966, 8.356962) rotate(-45.000000) translate(-97.646966, -8.356962) "></path>
                        <path d="M98.1469659,31.8569619 C98.6992506,31.8569619 99.1469659,32.3046772 99.1469659,32.8569619 L99.1459659,33.8569619 L100.146966,33.8569619 C100.699251,33.8569619 101.146966,34.3046772 101.146966,34.8569619 C101.146966,35.4092467 100.699251,35.8569619 100.146966,35.8569619 L99.1459659,35.8569619 L99.1469659,36.8569619 C99.1469659,37.4092467 98.6992506,37.8569619 98.1469659,37.8569619 C97.5946811,37.8569619 97.1469659,37.4092467 97.1469659,36.8569619 L97.1459659,35.8569619 L96.1469659,35.8569619 C95.5946811,35.8569619 95.1469659,35.4092467 95.1469659,34.8569619 C95.1469659,34.3046772 95.5946811,33.8569619 96.1469659,33.8569619 L97.1459659,33.8569619 L97.1469659,32.8569619 C97.1469659,32.3046772 97.5946811,31.8569619 98.1469659,31.8569619 Z" id="形状结合" fill="#FFFFFF" transform="translate(98.146966, 34.856962) rotate(-45.000000) translate(-98.146966, -34.856962) "></path>
                        <path d="M5.14696587,37.8569619 C5.69925062,37.8569619 6.14696587,38.3046772 6.14696587,38.8569619 L6.14596587,39.8569619 L7.14696587,39.8569619 C7.69925062,39.8569619 8.14696587,40.3046772 8.14696587,40.8569619 C8.14696587,41.4092467 7.69925062,41.8569619 7.14696587,41.8569619 L6.14596587,41.8569619 L6.14696587,42.8569619 C6.14696587,43.4092467 5.69925062,43.8569619 5.14696587,43.8569619 C4.59468112,43.8569619 4.14696587,43.4092467 4.14696587,42.8569619 L4.14596587,41.8569619 L3.14696587,41.8569619 C2.59468112,41.8569619 2.14696587,41.4092467 2.14696587,40.8569619 C2.14696587,40.3046772 2.59468112,39.8569619 3.14696587,39.8569619 L4.14596587,39.8569619 L4.14696587,38.8569619 C4.14696587,38.3046772 4.59468112,37.8569619 5.14696587,37.8569619 Z" id="形状结合备份-2" fill="#EEEEEE" transform="translate(5.146966, 40.856962) rotate(-45.000000) translate(-5.146966, -40.856962) "></path>
                        <path d="M26.1469659,51.8569619 C26.6992506,51.8569619 27.1469659,52.3046772 27.1469659,52.8569619 L27.1459659,53.8559619 L28.1469659,53.8569619 C28.6992506,53.8569619 29.1469659,54.3046772 29.1469659,54.8569619 C29.1469659,55.4092467 28.6992506,55.8569619 28.1469659,55.8569619 L27.1459659,55.8559619 L27.1469659,56.8569619 C27.1469659,57.4092467 26.6992506,57.8569619 26.1469659,57.8569619 C25.5946811,57.8569619 25.1469659,57.4092467 25.1469659,56.8569619 L25.1459659,55.8559619 L24.1469659,55.8569619 C23.5946811,55.8569619 23.1469659,55.4092467 23.1469659,54.8569619 C23.1469659,54.3046772 23.5946811,53.8569619 24.1469659,53.8569619 L25.1459659,53.8559619 L25.1469659,52.8569619 C25.1469659,52.3046772 25.5946811,51.8569619 26.1469659,51.8569619 Z" id="形状结合备份" fill="#FFFFFF" transform="translate(26.146966, 54.856962) rotate(-45.000000) translate(-26.146966, -54.856962) "></path>
                        <path d="M60.2803301,0.219669914 L60.987,0.926 L61.6945436,0.219669914 C61.9874369,-0.0732233047 62.4623106,-0.0732233047 62.7552038,0.219669914 C63.048097,0.512563133 63.048097,0.987436867 62.7552038,1.28033009 L62.048,1.987 L62.7552038,2.69454365 C63.048097,2.98743687 63.048097,3.4623106 62.7552038,3.75520382 C62.4623106,4.04809704 61.9874369,4.04809704 61.6945436,3.75520382 L60.987,3.048 L60.2803301,3.75520382 C59.9874369,4.04809704 59.5125631,4.04809704 59.2196699,3.75520382 C58.9267767,3.4623106 58.9267767,2.98743687 59.2196699,2.69454365 L59.926,1.987 L59.2196699,1.28033009 C58.9267767,0.987436867 58.9267767,0.512563133 59.2196699,0.219669914 C59.5125631,-0.0732233047 59.9874369,-0.0732233047 60.2803301,0.219669914 Z" id="形状结合" fill="#EEEEEE"></path>
                        <path d="M68.2803301,23.2196699 L68.987,23.926 L69.6945436,23.2196699 C69.9874369,22.9267767 70.4623106,22.9267767 70.7552038,23.2196699 C71.048097,23.5125631 71.048097,23.9874369 70.7552038,24.2803301 L70.048,24.987 L70.7552038,25.6945436 C71.048097,25.9874369 71.048097,26.4623106 70.7552038,26.7552038 C70.4623106,27.048097 69.9874369,27.048097 69.6945436,26.7552038 L68.987,26.048 L68.2803301,26.7552038 C67.9874369,27.048097 67.5125631,27.048097 67.2196699,26.7552038 C66.9267767,26.4623106 66.9267767,25.9874369 67.2196699,25.6945436 L67.926,24.987 L67.2196699,24.2803301 C66.9267767,23.9874369 66.9267767,23.5125631 67.2196699,23.2196699 C67.5125631,22.9267767 67.9874369,22.9267767 68.2803301,23.2196699 Z" id="形状结合备份-3" fill="#E5E5E5"></path>
                    </g>
                    <g id="line" transform="translate(13.146966, 99.356962)" fill="#AAAAAA" fill-rule="nonzero">
                        <path d="M46,10.6430381 C46.5522847,10.6430381 47,11.0907533 47,11.6430381 C47,12.1558739 46.6139598,12.5785452 46.1166211,12.6363103 L46,12.6430381 L38,12.6430381 C37.4477153,12.6430381 37,12.1953228 37,11.6430381 C37,11.1302022 37.3860402,10.7075309 37.8833789,10.6497658 L38,10.6430381 L46,10.6430381 Z M80,10.6430381 C80.5522847,10.6430381 81,11.0907533 81,11.6430381 C81,12.1558739 80.6139598,12.5785452 80.1166211,12.6363103 L80,12.6430381 L51,12.6430381 C50.4477153,12.6430381 50,12.1953228 50,11.6430381 C50,11.1302022 50.3860402,10.7075309 50.8833789,10.6497658 L51,10.6430381 L80,10.6430381 Z M59,5.64303806 C59.5522847,5.64303806 60,6.09075331 60,6.64303806 C60,7.15587389 59.6139598,7.57854522 59.1166211,7.63631032 L59,7.64303806 L58,7.64303806 C57.4477153,7.64303806 57,7.19532281 57,6.64303806 C57,6.13020222 57.3860402,5.70753089 57.8833789,5.64976579 L58,5.64303806 L59,5.64303806 Z M87,5.64303806 C87.5522847,5.64303806 88,6.09075331 88,6.64303806 C88,7.15587389 87.6139598,7.57854522 87.1166211,7.63631032 L87,7.64303806 L64,7.64303806 C63.4477153,7.64303806 63,7.19532281 63,6.64303806 C63,6.13020222 63.3860402,5.70753089 63.8833789,5.64976579 L64,5.64303806 L87,5.64303806 Z M53,5.64303806 C53.5522847,5.64303806 54,6.09075331 54,6.64303806 C54,7.15587389 53.6139598,7.57854522 53.1166211,7.63631032 L53,7.64303806 L19,7.64303806 C18.4477153,7.64303806 18,7.19532281 18,6.64303806 C18,6.13020222 18.3860402,5.70753089 18.8833789,5.64976579 L19,5.64303806 L53,5.64303806 Z M105,0.643038055 C105.552285,0.643038055 106,1.09075331 106,1.64303806 C106,2.15587389 105.61396,2.57854522 105.116621,2.63631032 L105,2.64303806 L1,2.64303806 C0.44771525,2.64303806 0,2.19532281 0,1.64303806 C0,1.13020222 0.38604019,0.707530895 0.883378875,0.649765787 L1,0.643038055 L105,0.643038055 Z" id="形状结合"></path>
                    </g>
                </g>
                <g id="编组-2" transform="translate(45.000000, 42.000000)">
                    <path d="M19.9931973,29 C20.2653061,29 20.5102041,28.9020979 20.7006803,28.7202797 C20.8911565,28.5244755 21,28.2867133 21,27.993007 C21,27.6993007 20.9047619,27.4615385 20.7142857,27.2797203 C20.5238095,27.0839161 20.2789116,27 19.9931973,27 C19.7210884,27 19.4761905,27.0839161 19.2857143,27.2797203 C19.0952381,27.4615385 19,27.6993007 19,27.993007 C19,28.2727273 19.0952381,28.5104895 19.2857143,28.7062937 C19.4761905,28.9020979 19.7210884,29 19.9931973,29 Z" id="路径" fill="#AAAAAA" fill-rule="nonzero"></path>
                    <path d="M16,15.1538462 C16,12.8597403 17.790861,11 20,11 C22.209139,11 24,13 24,15 C24,18.8461538 20,19 20,23" id="路径" stroke="#AAAAAA" stroke-width="2" stroke-linecap="round" stroke-linejoin="round"></path>
                    <path d="M3,0 L37,0 C38.6568542,-3.04359188e-16 40,1.34314575 40,3 L40,37 C40,38.6568542 38.6568542,40 37,40 L3,40 C1.34314575,40 2.02906125e-16,38.6568542 0,37 L0,3 C-2.02906125e-16,1.34314575 1.34314575,3.04359188e-16 3,0 Z" id="矩形" stroke="#AAAAAA" stroke-width="2" stroke-linecap="round" stroke-dasharray="2,5"></path>
                    <g id="放大镜" transform="translate(20.000000, 12.000000)" stroke-width="2">
                        <circle id="椭圆形" stroke="#AAAAAA" fill="#FFFFFF" transform="translate(17.000000, 17.000000) rotate(-45.000000) translate(-17.000000, -17.000000) " cx="17" cy="17" r="11"></circle>
                        <circle id="椭圆形备份-2" stroke="#EEEEEE" fill="#EEEEEE" transform="translate(17.000000, 17.000000) rotate(-45.000000) translate(-17.000000, -17.000000) " cx="17" cy="17" r="7"></circle>
                        <path d="M16.213393,11.0251263 C12.3473997,11.0251263 9.21339295,14.159133 9.21339295,18.0251263" id="路径" stroke="#AAAAAA" fill="#EEEEEE" stroke-linecap="round" transform="translate(12.713393, 14.525126) rotate(-15.000000) translate(-12.713393, -14.525126) "></path>
                        <rect id="矩形" stroke="#AAAAAA" fill="#FFFFFF" transform="translate(27.960155, 27.960155) rotate(-45.000000) translate(-27.960155, -27.960155) " x="27.9601551" y="24.4601551" width="1" height="7" rx="0.5"></rect>
                    </g>
                </g>
            </g>
        </g>
    </g>
</svg>