<?xml version="1.0" encoding="UTF-8"?>
<svg width="32px" height="32px" viewBox="0 0 32 32" version="1.1" xmlns="http://www.w3.org/2000/svg" xmlns:xlink="http://www.w3.org/1999/xlink">
    <title>icon-2</title>
    <defs>
        <linearGradient x1="20.8222581%" y1="25.4234589%" x2="65.2834545%" y2="75.5111474%" id="linearGradient-1">
            <stop stop-color="#0091FF" offset="0%"></stop>
            <stop stop-color="#2F80ED" offset="100%"></stop>
        </linearGradient>
    </defs>
    <g id="4-我的" stroke="none" stroke-width="1" fill="none" fill-rule="evenodd">
        <g id="4-0-1我的" transform="translate(-216.000000, -298.000000)">
            <g id="2" transform="translate(12.000000, 237.000000)">
                <g id="icon-2" transform="translate(204.000000, 61.000000)">
                    <path d="M9.5,23 C10.8807119,23 12,24.1192881 12,25.5 C12,26.8807119 10.8807119,28 9.5,28 C8.11928813,28 7,26.8807119 7,25.5 C7,24.1192881 8.11928813,23 9.5,23 Z M23.5,23 C24.8807119,23 26,24.1192881 26,25.5 C26,26.8807119 24.8807119,28 23.5,28 C22.1192881,28 21,26.8807119 21,25.5 C21,24.1192881 22.1192881,23 23.5,23 Z M28,6 C29.1045695,6 30,6.8954305 30,8 L30,23 C30,24.1045695 29.1045695,25 28,25 L27.4690832,25.0002409 C27.2231411,23.0269685 25.5398918,21.5 23.5,21.5 C21.4601082,21.5 19.7768589,23.0269685 19.5309168,25.0002409 L13.4690832,25.0002409 C13.2231411,23.0269685 11.5398918,21.5 9.5,21.5 C7.46010817,21.5 5.77685893,23.0269685 5.53091685,25.0002409 L4,25 C2.8954305,25 2,24.1045695 2,23 L2,17.6409301 C2,17.2240842 2.13024627,16.8176552 2.37253306,16.4784537 L6.40176885,10.8375236 C6.77719188,10.3119314 7.38333358,10 8.02923579,10 L12,10 L12,8 C12,6.8954305 12.8954305,6 14,6 L28,6 Z" id="形状结合" fill="url(#linearGradient-1)"></path>
                    <polygon id="路径-6" stroke="#FFFFFF" stroke-width="1.5" fill="#FFFFFF" stroke-linecap="round" stroke-linejoin="round" points="6 17 9 17 9 13"></polygon>
                </g>
            </g>
        </g>
    </g>
</svg>