<?xml version="1.0" encoding="UTF-8"?>
<svg width="64px" height="64px" viewBox="0 0 64 64" version="1.1" xmlns="http://www.w3.org/2000/svg" xmlns:xlink="http://www.w3.org/1999/xlink">
    <title>-mockplus-</title>
    <g id="7-切图" stroke="none" stroke-width="1" fill="none" fill-rule="evenodd">
        <g id="切图" transform="translate(-563.000000, -121.000000)">
            <g id="closed" transform="translate(563.000000, 121.000000)">
                <rect id="矩形" fill="#FFFFFF" x="0" y="0" width="64" height="64"></rect>
                <path d="M32.6932131,5.81818182 C17.8681958,5.81818182 5.81818182,17.8681958 5.81818182,32.6932131 C5.81818182,47.5182303 17.8681958,59.5682444 32.6932131,59.5682444 C47.5182303,59.5682444 59.5682444,47.5182303 59.5682444,32.6932131 C59.5682444,17.8681958 47.5182303,5.81818182 32.6932131,5.81818182 Z M42.1932241,39.461971 C42.943225,40.2119718 42.943225,41.4307233 42.1932241,42.1807241 C41.4432233,42.930725 40.2307219,42.930725 39.480721,42.1807241 L32.6932131,35.3869662 L25.8994552,42.1744741 C25.1494543,42.924475 23.9369529,42.924475 23.186952,42.1744741 C22.4369512,41.4244733 22.4369512,40.2119718 23.186952,39.461971 L29.9807099,32.6682131 L23.193202,25.8869552 C22.4432012,25.1369543 22.4432012,23.9182029 23.193202,23.168202 C23.9432029,22.4182011 25.1619543,22.4182011 25.9119552,23.168202 L32.6932131,29.9557099 L39.480721,23.168202 C40.2307219,22.4182011 41.4494733,22.4182011 42.1994742,23.168202 C42.949475,23.9182029 42.949475,25.1369543 42.1994742,25.8869552 L35.4119663,32.6744631 L42.1932241,39.461971 Z" id="形状" fill="#FF3B30" fill-rule="nonzero"></path>
            </g>
        </g>
    </g>
</svg>