<?xml version="1.0" encoding="UTF-8"?>
<svg width="24px" height="24px" viewBox="0 0 24 24" version="1.1" xmlns="http://www.w3.org/2000/svg" xmlns:xlink="http://www.w3.org/1999/xlink">
    <title>-mockplus-</title>
    <g id="4-我的" stroke="none" stroke-width="1" fill="none" fill-rule="evenodd">
        <g id="4-5-28订单详情-电话" transform="translate(-111.000000, -387.000000)">
            <g id="编组" transform="translate(47.000000, 311.000000)">
                <g id="icon/我的/话费充值-蓝色" transform="translate(64.000000, 76.000000)">
                    <g id="icon-3" fill="#000000" fill-rule="nonzero" opacity="0">
                        <rect id="矩形" x="0" y="0" width="24" height="24"></rect>
                    </g>
                    <rect id="矩形" stroke="#2F80ED" stroke-width="1.5" x="4" y="3" width="16" height="18" rx="2"></rect>
                    <path d="M14.25,17.5 C14.6642136,17.5 15,17.8357864 15,18.25 C15,18.6642136 14.6642136,19 14.25,19 L9.75,19 C9.33578644,19 9,18.6642136 9,18.25 C9,17.8357864 9.33578644,17.5 9.75,17.5 L14.25,17.5 Z M16,5.25 C16.9664983,5.25 17.75,6.03350169 17.75,7 L17.75,7 L17.75,14 C17.75,14.9664983 16.9664983,15.75 16,15.75 L16,15.75 L8,15.75 C7.03350169,15.75 6.25,14.9664983 6.25,14 L6.25,14 L6.25,7 C6.25,6.03350169 7.03350169,5.25 8,5.25 L8,5.25 Z M16,6.75 L8,6.75 C7.86192881,6.75 7.75,6.86192881 7.75,7 L7.75,7 L7.75,14 C7.75,14.1380712 7.86192881,14.25 8,14.25 L8,14.25 L16,14.25 C16.1380712,14.25 16.25,14.1380712 16.25,14 L16.25,14 L16.25,7 C16.25,6.86192881 16.1380712,6.75 16,6.75 L16,6.75 Z" id="形状结合" fill="#2F80ED" fill-rule="nonzero" opacity="0.600000024"></path>
                </g>
            </g>
        </g>
    </g>
</svg>