<?xml version="1.0" encoding="UTF-8"?>
<svg width="64px" height="64px" viewBox="0 0 64 64" version="1.1" xmlns="http://www.w3.org/2000/svg" xmlns:xlink="http://www.w3.org/1999/xlink">
    <title>-mockplus-</title>
    <g id="7-切图" stroke="none" stroke-width="1" fill="none" fill-rule="evenodd">
        <g id="切图" transform="translate(-449.000000, -121.000000)">
            <g id="编组" transform="translate(449.000000, 121.000000)">
                <rect id="矩形" fill="#FFFFFF" x="0" y="0" width="64" height="64"></rect>
                <path d="M33,5 C18.0872093,5 6,17.0934884 6,32 C6,46.9065116 18.0934884,59 33,59 C47.9065116,59 60,46.9127907 60,32 C60,17.0872093 47.9127907,5 33,5 Z M45.9662791,25.4634884 L31.8697674,39.56 L31.4176744,40.012093 C30.1618605,41.267907 28.1274419,41.267907 26.8716279,40.012093 L20.9630233,34.1034884 C20.2095349,33.35 20.2095349,32.1318605 20.9630233,31.3783721 C21.7165116,30.6248837 22.9346512,30.6248837 23.6881395,31.3783721 L28.0081395,35.6983721 C28.6360465,36.3262791 29.6532558,36.3262791 30.2811628,35.6983721 L43.2348837,22.7383721 C43.9883721,21.9848837 45.2065116,21.9848837 45.96,22.7383721 C46.7134884,23.4918605 46.7134884,24.71 45.9662791,25.4634884 Z" id="形状" fill="#52C41A"></path>
            </g>
        </g>
    </g>
</svg>