<?xml version="1.0" encoding="UTF-8"?>
<svg width="56px" height="56px" viewBox="0 0 56 56" version="1.1" xmlns="http://www.w3.org/2000/svg" xmlns:xlink="http://www.w3.org/1999/xlink">
    <title>用户</title>
    <g id="4-我的" stroke="none" stroke-width="1" fill="none" fill-rule="evenodd">
        <g id="4-0-1我的" transform="translate(-15.000000, -79.000000)">
            <g id="用户" transform="translate(15.000000, 79.000000)">
                <circle id="椭圆形" stroke="#FFFFFF" fill="#FFFFFF" cx="28" cy="28" r="27.5"></circle>
                <path d="M41.7088567,37.0128255 C41.8078454,37.3101438 41.8835427,37.6949086 41.9301256,38.1612903 C41.9767085,38.627672 42,38.2545666 42,38.7209483 C42,39.18733 41.9650628,39.6303925 41.9010113,40.050136 C41.8311369,40.4698795 41.7263253,40.7846871 41.5923994,41.0003886 C41.4934106,41.1403031 41.2080902,41.2860474 40.7422609,41.449281 C40.2764317,41.6125146 35.4143386,43 28.578294,43 C22.3303589,43 16.9500307,41.9856199 16.0940694,41.7932375 C15.2381081,41.600855 14.7256959,41.4376214 14.5451871,41.3035367 C14.3239182,41.1403031 14.1608779,40.6564322 14.0560663,39.846094 C13.9512547,39.0299261 13.9920148,38.8258841 14.1899923,37.5549941 C14.3122724,36.820443 14.6092386,36.2607851 15.0808907,35.8876797 C15.5583657,35.5087446 16.1231837,35.2114263 16.763699,34.9957248 C17.4100371,34.7741935 20.4029902,33.7423241 21.0900884,33.5616012 C21.7771865,33.3808783 22.3769417,33.1243684 22.8893539,32.7862417 C23.3086002,32.5297318 23.6288579,32.2790517 23.8559497,32.0400311 C24.0830414,31.8010105 24.2460817,31.5619899 24.3334247,31.3229693 C24.4207677,31.0839487 24.4673506,30.8390983 24.4673506,30.5767586 C24.4673506,30.3202487 24.4557049,30.0404197 24.4382363,29.7372716 C24.3974762,29.2592304 24.2460817,28.8919549 23.9782299,28.635445 C23.710378,28.3789351 23.4134119,28.1107656 23.0698628,27.8309366 C22.9068225,27.6910221 22.7728966,27.4986397 22.6506164,27.2479595 C22.5283362,26.9972794 22.4235247,26.7465992 22.3245359,26.4900893 C22.2255472,26.192771 22.1265585,25.8837932 22.0275698,25.5689856 C21.887821,25.5281772 21.7480722,25.4640497 21.6083234,25.3591138 C21.4860433,25.2600077 21.3579402,25.1200932 21.2181914,24.9393704 C21.0784427,24.7586475 20.9619853,24.5021375 20.8571738,24.1640109 C20.758185,23.8317139 20.7232478,23.5227361 20.758185,23.2545666 C20.7872994,22.9863972 20.8397051,22.7532063 20.9212253,22.5549941 C20.9969225,22.3334629 21.1192027,22.1294209 21.2822429,21.9253789 C21.2647743,21.1733385 21.2997115,20.4154683 21.4045231,19.6575981 C21.4802204,19.0221531 21.625792,18.3458997 21.8354152,17.6288379 C22.0450384,16.9117761 22.3478274,16.2646715 22.7437823,15.693354 C23.1222686,15.1570151 23.5415149,14.7139526 24.0073442,14.3641663 C24.4731735,14.0143801 24.9448256,13.7403809 25.4223006,13.5421687 C25.8997756,13.3439565 26.3772506,13.2098717 26.8663714,13.1224252 C27.3496693,13.0466382 27.8213214,13 28.2813278,13 C28.8519687,13 29.4109638,13.0699572 29.9350217,13.2098717 C30.4590797,13.3497862 30.9482004,13.5246793 31.4082068,13.7462107 C31.8623904,13.9677419 32.2758138,14.2067625 32.6251858,14.474932 C32.9862035,14.7431014 33.2715239,15.0171007 33.4927928,15.2969296 C33.9877364,15.9323746 34.3603998,16.6319471 34.6107831,17.3956471 C34.8611663,18.159347 35.0358523,18.8764088 35.1290181,19.5526622 C35.2512983,20.345511 35.2978812,21.1441896 35.2804126,21.9370384 C35.4201614,22.0128255 35.5307959,22.1352506 35.6064931,22.2984842 C35.6821904,22.4383987 35.7520648,22.6132918 35.7986477,22.8348231 C35.8452306,23.0563544 35.8510535,23.3186941 35.8102934,23.6393315 C35.7520648,24.059075 35.653076,24.3855421 35.5307959,24.6362223 C35.3968699,24.8869024 35.2571212,25.0792848 35.0999038,25.2191994 C34.919395,25.3824329 34.7330633,25.4873688 34.5350858,25.5456665 C34.4593885,25.8604741 34.3662227,26.1752818 34.267234,26.4667703 C34.1682453,26.7232802 34.0517879,26.9797901 33.9295078,27.2246405 C33.7955819,27.4753206 33.6558331,27.667703 33.4986157,27.8076176 C33.3181069,27.9708511 33.1550666,28.0991061 32.9920264,28.2098717 C32.8289861,28.3148076 32.6950602,28.431403 32.57278,28.5479984 C32.4504999,28.6704236 32.3515111,28.8103381 32.2758139,28.9794014 C32.2001166,29.1484648 32.1360651,29.3525068 32.095305,29.5915274 C32.0370764,29.8888457 32.0196078,30.1919937 32.0370764,30.5009716 C32.054545,30.8041197 32.1360651,31.1189273 32.2758139,31.4220754 C32.4155627,31.7252234 32.6426544,32.0225417 32.9629121,32.3023707 C33.2773468,32.5821997 33.7082389,32.8270501 34.2439426,33.0485814 C34.7388862,33.2467936 35.2862356,33.4216867 35.8685221,33.567431 C36.4566316,33.719005 38.8148923,34.7333851 39.3564188,34.9432569 C39.8979454,35.1531286 40.3870661,35.4154683 40.8121353,35.7302759 C41.2255588,36.0800622 41.5283479,36.4939759 41.7088567,37.0128255 L41.7088567,37.0128255 Z" id="形状" fill-opacity="0.5" fill="#2F80ED" fill-rule="nonzero"></path>
            </g>
        </g>
    </g>
</svg>