<?xml version="1.0" encoding="UTF-8"?>
<svg width="24px" height="24px" viewBox="0 0 24 24" version="1.1" xmlns="http://www.w3.org/2000/svg" xmlns:xlink="http://www.w3.org/1999/xlink">
    <title>-mockplus-</title>
    <g id="4-我的" stroke="none" stroke-width="1" fill="none" fill-rule="evenodd">
        <g id="4-4-1我的-账户余额" transform="translate(-334.000000, -112.000000)" fill-rule="nonzero">
            <g id="1" transform="translate(0.000000, 112.000000)">
                <g id="icon/问号" transform="translate(334.000000, 0.000000)">
                    <rect id="矩形" fill="#000000" opacity="0" x="0" y="0" width="24" height="24"></rect>
                    <path d="M11.75,3 C6.91796875,3 3,6.91796875 3,11.75 C3,16.5820312 6.91796875,20.5 11.75,20.5 C16.5820312,20.5 20.5,16.5820312 20.5,11.75 C20.5,6.91796875 16.5820312,3 11.75,3 Z M11.75,16.828125 C11.3183594,16.828125 10.96875,16.4785156 10.96875,16.046875 C10.96875,15.6152344 11.3183594,15.265625 11.75,15.265625 C12.1816406,15.265625 12.53125,15.6152344 12.53125,16.046875 C12.53125,16.4785156 12.1816406,16.828125 11.75,16.828125 Z M12.9785156,12.5410156 C12.6171875,12.6796875 12.375,13.03125 12.375,13.4160156 L12.375,13.859375 C12.375,13.9453125 12.3046875,14.015625 12.21875,14.015625 L11.28125,14.015625 C11.1953125,14.015625 11.125,13.9453125 11.125,13.859375 L11.125,13.4394531 C11.125,12.9882812 11.2558594,12.5429688 11.5136719,12.171875 C11.765625,11.8085938 12.1171875,11.53125 12.53125,11.3730469 C13.1953125,11.1171875 13.625,10.5605469 13.625,9.953125 C13.625,9.09179688 12.7832031,8.390625 11.75,8.390625 C10.7167969,8.390625 9.875,9.09179688 9.875,9.953125 L9.875,10.1015625 C9.875,10.1875 9.8046875,10.2578125 9.71875,10.2578125 L8.78125,10.2578125 C8.6953125,10.2578125 8.625,10.1875 8.625,10.1015625 L8.625,9.953125 C8.625,9.18554688 8.9609375,8.46875 9.5703125,7.93554688 C10.15625,7.421875 10.9296875,7.140625 11.75,7.140625 C12.5703125,7.140625 13.34375,7.42382812 13.9296875,7.93554688 C14.5390625,8.46875 14.875,9.18554688 14.875,9.953125 C14.875,11.0820312 14.1308594,12.0976562 12.9785156,12.5410156 Z" id="形状" fill="#999999"></path>
                </g>
            </g>
        </g>
    </g>
</svg>