<?xml version="1.0" encoding="UTF-8"?>
<svg width="20px" height="20px" viewBox="0 0 20 20" version="1.1" xmlns="http://www.w3.org/2000/svg" xmlns:xlink="http://www.w3.org/1999/xlink">
    <title>icon/物流</title>
    <g id="7-切图" stroke="none" stroke-width="1" fill="none" fill-rule="evenodd">
        <g id="切图" transform="translate(-54.000000, -395.000000)">
            <g id="icon/物流" transform="translate(54.000000, 395.000000)">
                <rect id="矩形" stroke="#979797" fill="#D8D8D8" opacity="0" x="0.5" y="0.5" width="19" height="19"></rect>
                <path d="M9.5,6.5 L9.5,14.5 L5,14.5 C4.58578644,14.5 4.21078644,14.3321068 3.93933983,14.0606602 C3.66789322,13.7892136 3.5,13.4142136 3.5,13 L3.5,13 L3.5,10.5 C3.5,9.3954305 3.94771525,8.3954305 4.67157288,7.67157288 C5.3954305,6.94771525 6.3954305,6.5 7.5,6.5 L7.5,6.5 L9.5,6.5 Z" id="矩形" stroke="#333333" fill="#FFFFFF"></path>
                <path d="M15,4.5 C15.4142136,4.5 15.7892136,4.66789322 16.0606602,4.93933983 C16.3321068,5.21078644 16.5,5.58578644 16.5,6 L16.5,6 L16.5,13 C16.5,13.4142136 16.3321068,13.7892136 16.0606602,14.0606602 C15.7892136,14.3321068 15.4142136,14.5 15,14.5 L15,14.5 L7.5,14.5 L7.5,6 C7.5,5.58578644 7.66789322,5.21078644 7.93933983,4.93933983 C8.21078644,4.66789322 8.58578644,4.5 9,4.5 L9,4.5 Z" id="矩形备份" stroke="#333333" fill="#FFFFFF"></path>
                <circle id="椭圆形备份" stroke="#333333" fill="#FFFFFF" cx="6" cy="15" r="1.5"></circle>
                <circle id="椭圆形备份-2" stroke="#333333" fill="#FFFFFF" cx="14" cy="15" r="1.5"></circle>
            </g>
        </g>
    </g>
</svg>