<?xml version="1.0" encoding="UTF-8"?>
<svg width="24px" height="24px" viewBox="0 0 24 24" version="1.1" xmlns="http://www.w3.org/2000/svg" xmlns:xlink="http://www.w3.org/1999/xlink">
    <title>-mockplus-</title>
    <defs>
        <rect id="path-1" x="0" y="0" width="24" height="24"></rect>
    </defs>
    <g id="7-切图" stroke="none" stroke-width="1" fill="none" fill-rule="evenodd">
        <g id="切图" transform="translate(-450.000000, -318.000000)">
            <g id="icon/选框/消息" transform="translate(450.000000, 318.000000)">
                <mask id="mask-2" fill="white">
                    <use xlink:href="#path-1"></use>
                </mask>
                <use id="矩形" fill="#000000" fill-rule="nonzero" opacity="0" xlink:href="#path-1"></use>
                <g id="编组-4" mask="url(#mask-2)" fill="#FFFFFF" fill-rule="nonzero">
                    <g transform="translate(2.000000, 2.000000)" id="形状结合">
                        <path d="M3.06281566,2.91636906 C6.87042751,-0.891242789 13.0437861,-0.891242789 16.8513979,2.91636906 C20.6590097,6.7239809 20.6590097,12.8973394 16.8513979,16.7049513 C13.8855346,19.6708146 9.40219201,20.3760157 5.71407168,18.5918636 L5.71407168,18.5918636 L5.45134687,18.4585006 L2.71614234,18.914467 C2.24487287,18.9928138 1.8319526,18.618999 1.8430862,18.1588748 L1.8430862,18.1588748 L1.85334953,18.0513266 L2.23471812,15.7623024 L2.116689,15.6085405 C-0.677036304,11.8415508 -0.389067009,6.55974298 2.87141387,3.11315096 L2.87141387,3.11315096 Z M15.7907377,3.97702923 C12.5689123,0.75520382 7.34530124,0.75520382 4.12347584,3.97702923 C1.10334814,6.99715693 0.894809506,11.8162114 3.60614227,15.0773082 C3.74554324,15.2449748 3.80507494,15.4650077 3.76922951,15.6800887 L3.76922951,15.6800887 L3.505389,17.2620759 L5.45819217,16.9380244 C5.59220691,16.915745 5.72909682,16.9303774 5.85445437,16.9794236 L5.85445437,16.9794236 L5.94608509,17.0226217 C9.13941408,18.8009301 13.1671157,18.2679131 15.7907377,15.6442911 C19.0125631,12.4224657 19.0125631,7.19885463 15.7907377,3.97702923 Z M11.25,11 C11.6642136,11 12,11.3357864 12,11.75 C12,12.1642136 11.6642136,12.5 11.25,12.5 L6.75,12.5 C6.33578644,12.5 6,12.1642136 6,11.75 C6,11.3357864 6.33578644,11 6.75,11 L11.25,11 Z M13.25,7 C13.6642136,7 14,7.33578644 14,7.75 C14,8.16421356 13.6642136,8.5 13.25,8.5 L6.75,8.5 C6.33578644,8.5 6,8.16421356 6,7.75 C6,7.33578644 6.33578644,7 6.75,7 L13.25,7 Z"></path>
                    </g>
                </g>
            </g>
        </g>
    </g>
</svg>