<svg width="24" height="24" viewBox="0 0 24 24" fill="none" xmlns="http://www.w3.org/2000/svg">
<path d="M0 12C0 5.37258 5.37258 0 12 0V0C18.6274 0 24 5.37258 24 12V12C24 18.6274 18.6274 24 12 24V24C5.37258 24 0 18.6274 0 12V12Z" fill="white"/>
<path d="M7.13172 7.2785C7.06172 7.34675 6.97822 7.4435 6.87972 7.567C6.84122 7.61525 6.80122 7.667 6.75972 7.72375C6.61842 7.91551 6.48262 8.11125 6.35247 8.31075L6.34572 8.319C6.01522 8.80275 5.89997 9.66325 6.09522 10.1985L6.10372 10.2203L6.10872 10.2435C6.11372 10.2668 6.14547 10.3753 6.20547 10.5453C6.31073 10.85 6.42934 11.1499 6.56097 11.4443C6.99454 12.4217 7.55139 13.3397 8.21797 14.1758C8.42846 14.4396 8.65068 14.6938 8.88397 14.9378C9.17318 15.2393 9.47908 15.5244 9.80022 15.7918C10.8045 16.624 11.9359 17.2895 13.1512 17.7628C13.3362 17.8328 13.4365 17.8645 13.4632 17.8728L13.4782 17.8778L13.4917 17.8828C14.0207 18.0878 14.8917 18.0163 15.3942 17.726L15.4042 17.721C15.4392 17.7028 15.5142 17.661 15.6142 17.6043C15.788 17.506 15.9497 17.4093 16.095 17.3208C16.1517 17.2858 16.2067 17.2508 16.257 17.2193C16.479 17.0758 16.6325 16.964 16.7107 16.884C17.0947 16.497 17.0962 16.0385 16.7157 15.655C16.2035 15.1398 15.6962 14.6325 15.2057 14.1475C14.8282 13.7738 14.3777 13.7738 14.0007 14.1475C13.8937 14.2543 13.7252 14.4193 13.5132 14.6325L12.7407 15.4015L12.4902 15.2998C12.337 15.2365 12.1857 15.1686 12.0365 15.0963C11.6611 14.9174 11.2991 14.7118 10.9532 14.481C10.6462 14.276 10.3792 14.0623 10.1572 13.8455C9.91372 13.6088 9.67172 13.3003 9.43797 12.93C9.23321 12.6031 9.04982 12.2633 8.88897 11.9128C8.82406 11.7746 8.76337 11.6346 8.70697 11.4928L8.60847 11.244L9.32597 10.527C9.49631 10.3575 9.66606 10.1874 9.83522 10.0168C10.2257 9.62475 10.224 9.1745 9.83172 8.77925C9.49972 8.44425 8.55522 7.50025 8.33497 7.2835C8.14972 7.0935 7.94097 7 7.73397 7C7.52722 7 7.32022 7.0935 7.13147 7.2785H7.13172Z" fill="#48B2FF"/>
<path d="M7.13172 7.2785C7.06172 7.34675 6.97822 7.4435 6.87972 7.567C6.84122 7.61525 6.80122 7.667 6.75972 7.72375C6.61842 7.91551 6.48262 8.11125 6.35247 8.31075L6.34572 8.319C6.01522 8.80275 5.89997 9.66325 6.09522 10.1985L6.10372 10.2203L6.10872 10.2435C6.11372 10.2668 6.14547 10.3753 6.20547 10.5453C6.31073 10.85 6.42934 11.1499 6.56097 11.4443C6.99454 12.4217 7.55139 13.3397 8.21797 14.1758C8.42846 14.4396 8.65068 14.6938 8.88397 14.9378C9.17318 15.2393 9.47908 15.5244 9.80022 15.7918C10.8045 16.624 11.9359 17.2895 13.1512 17.7628C13.3362 17.8328 13.4365 17.8645 13.4632 17.8728L13.4782 17.8778L13.4917 17.8828C14.0207 18.0878 14.8917 18.0163 15.3942 17.726L15.4042 17.721C15.4392 17.7028 15.5142 17.661 15.6142 17.6043C15.788 17.506 15.9497 17.4093 16.095 17.3208C16.1517 17.2858 16.2067 17.2508 16.257 17.2193C16.479 17.0758 16.6325 16.964 16.7107 16.884C17.0947 16.497 17.0962 16.0385 16.7157 15.655C16.2035 15.1398 15.6962 14.6325 15.2057 14.1475C14.8282 13.7738 14.3777 13.7738 14.0007 14.1475C13.8937 14.2543 13.7252 14.4193 13.5132 14.6325L12.7407 15.4015L12.4902 15.2998C12.337 15.2365 12.1857 15.1686 12.0365 15.0963C11.6611 14.9174 11.2991 14.7118 10.9532 14.481C10.6462 14.276 10.3792 14.0623 10.1572 13.8455C9.91372 13.6088 9.67172 13.3003 9.43797 12.93C9.23321 12.6031 9.04982 12.2633 8.88897 11.9128C8.82406 11.7746 8.76337 11.6346 8.70697 11.4928L8.60847 11.244L9.32597 10.527C9.49631 10.3575 9.66606 10.1874 9.83522 10.0168C10.2257 9.62475 10.224 9.1745 9.83172 8.77925C9.49972 8.44425 8.55522 7.50025 8.33497 7.2835C8.14972 7.0935 7.94097 7 7.73397 7C7.52722 7 7.32022 7.0935 7.13147 7.2785H7.13172Z" fill="#2F80ED"/>
<g opacity="0.5">
<path d="M14.7501 11.4999V11.4989L14.7351 11.4999C14.6738 11.4999 14.6147 11.4774 14.569 11.4367C14.5232 11.396 14.494 11.3399 14.4868 11.2791L14.4851 11.2499C14.4292 10.8093 14.2285 10.3998 13.9145 10.0858C13.6004 9.77181 13.1909 9.57115 12.7503 9.51539C12.7162 9.51534 12.6824 9.50833 12.6511 9.49477C12.6197 9.48121 12.5915 9.46139 12.5681 9.43653C12.5447 9.41168 12.5266 9.3823 12.5149 9.3502C12.5033 9.31811 12.4983 9.28397 12.5003 9.24988H12.5001V8.73488C12.5038 8.70051 12.5145 8.66727 12.5316 8.63722C12.5487 8.60718 12.5718 8.58098 12.5995 8.56025C12.6272 8.53952 12.6588 8.52471 12.6925 8.51673C12.7261 8.50875 12.761 8.50779 12.7951 8.51388C14.2313 8.65439 15.3708 9.80739 15.4898 11.2499C15.4876 11.3879 15.3756 11.4999 15.2376 11.4999L15.2501 11.4991V11.4999H14.7501ZM12.7501 6.00488C12.7608 6.00488 12.7713 6.00563 12.7818 6.00688C15.5943 6.14888 17.8501 8.40388 17.9928 11.2164C17.9976 11.2517 17.9947 11.2877 17.9845 11.3218C17.9742 11.356 17.9568 11.3875 17.9333 11.4144C17.9098 11.4412 17.8809 11.4628 17.8484 11.4775C17.816 11.4923 17.7807 11.4999 17.7451 11.4999L17.7501 11.4996V11.4999H17.2501V11.4994L17.2426 11.4999C17.1813 11.4999 17.1222 11.4774 17.0765 11.4367C17.0307 11.396 17.0015 11.3399 16.9943 11.2791L16.9926 11.2499V11.2439C16.8651 8.96238 15.0376 7.13513 12.7561 7.00713L12.7501 7.00738C12.7166 7.0074 12.6835 7.00069 12.6526 6.98766C12.6218 6.97463 12.5939 6.95554 12.5706 6.93153C12.5473 6.90751 12.529 6.87906 12.5169 6.84786C12.5048 6.81666 12.4991 6.78334 12.5001 6.74988V6.24988C12.5014 6.18445 12.5283 6.12214 12.575 6.07633C12.6218 6.03052 12.6846 6.00487 12.7501 6.00488V6.00488Z" fill="#48B2FF"/>
<path d="M14.7501 11.4999V11.4989L14.7351 11.4999C14.6738 11.4999 14.6147 11.4774 14.569 11.4367C14.5232 11.396 14.494 11.3399 14.4868 11.2791L14.4851 11.2499C14.4292 10.8093 14.2285 10.3998 13.9145 10.0858C13.6004 9.77181 13.1909 9.57115 12.7503 9.51539C12.7162 9.51534 12.6824 9.50833 12.6511 9.49477C12.6197 9.48121 12.5915 9.46139 12.5681 9.43653C12.5447 9.41168 12.5266 9.3823 12.5149 9.3502C12.5033 9.31811 12.4983 9.28397 12.5003 9.24988H12.5001V8.73488C12.5038 8.70051 12.5145 8.66727 12.5316 8.63722C12.5487 8.60718 12.5718 8.58098 12.5995 8.56025C12.6272 8.53952 12.6588 8.52471 12.6925 8.51673C12.7261 8.50875 12.761 8.50779 12.7951 8.51388C14.2313 8.65439 15.3708 9.80739 15.4898 11.2499C15.4876 11.3879 15.3756 11.4999 15.2376 11.4999L15.2501 11.4991V11.4999H14.7501ZM12.7501 6.00488C12.7608 6.00488 12.7713 6.00563 12.7818 6.00688C15.5943 6.14888 17.8501 8.40388 17.9928 11.2164C17.9976 11.2517 17.9947 11.2877 17.9845 11.3218C17.9742 11.356 17.9568 11.3875 17.9333 11.4144C17.9098 11.4412 17.8809 11.4628 17.8484 11.4775C17.816 11.4923 17.7807 11.4999 17.7451 11.4999L17.7501 11.4996V11.4999H17.2501V11.4994L17.2426 11.4999C17.1813 11.4999 17.1222 11.4774 17.0765 11.4367C17.0307 11.396 17.0015 11.3399 16.9943 11.2791L16.9926 11.2499V11.2439C16.8651 8.96238 15.0376 7.13513 12.7561 7.00713L12.7501 7.00738C12.7166 7.0074 12.6835 7.00069 12.6526 6.98766C12.6218 6.97463 12.5939 6.95554 12.5706 6.93153C12.5473 6.90751 12.529 6.87906 12.5169 6.84786C12.5048 6.81666 12.4991 6.78334 12.5001 6.74988V6.24988C12.5014 6.18445 12.5283 6.12214 12.575 6.07633C12.6218 6.03052 12.6846 6.00487 12.7501 6.00488V6.00488Z" fill="#2F80ED"/>
</g>
</svg>
