<svg width="41" height="40" viewBox="0 0 41 40" fill="none" xmlns="http://www.w3.org/2000/svg">
<path d="M0.5 20C0.5 8.95431 9.45431 0 20.5 0V20H0.5Z" fill="#4286F5"/>
<path d="M20.5 0C31.5457 0 40.5 8.95431 40.5 20H20.5V0Z" fill="#EA4235"/>
<path d="M0.5 20H20.5V40C9.45431 40 0.5 31.0457 0.5 20Z" fill="#34A853"/>
<path d="M20.5 20H40.5C40.5 31.0457 31.5457 40 20.5 40V20Z" fill="#FABC05"/>
<path d="M32.0312 17.825H20.7406V22.4656H27.1906C26.9125 23.9656 26.0687 25.2344 24.7969 26.0844C23.7219 26.8031 22.35 27.2281 20.7375 27.2281C17.6156 27.2281 14.975 25.1187 14.0312 22.2844C13.7937 21.5656 13.6562 20.7969 13.6562 20.0063C13.6562 19.2156 13.7937 18.4469 14.0312 17.7281C14.9781 14.8969 17.6187 12.7875 20.7406 12.7875C22.5 12.7875 24.0781 13.3938 25.3219 14.5813L28.7594 11.1406C26.6812 9.20312 23.9719 8.01562 20.7406 8.01562C16.0562 8.01562 12.0031 10.7031 10.0312 14.6219C9.21873 16.2406 8.75623 18.0719 8.75623 20.0094C8.75623 21.9469 9.21873 23.775 10.0312 25.3937C12.0031 29.3125 16.0562 32 20.7406 32C23.9781 32 26.6906 30.925 28.6719 29.0938C30.9375 27.0063 32.2469 23.9313 32.2469 20.2781C32.2469 19.4281 32.1719 18.6125 32.0312 17.825Z" fill="white"/>
</svg>
