<svg width="40" height="40" viewBox="0 0 40 40" fill="none" xmlns="http://www.w3.org/2000/svg">
<path d="M0 20C0 8.95431 8.95431 0 20 0V0C31.0457 0 40 8.95431 40 20V20C40 31.0457 31.0457 40 20 40V40C8.95431 40 0 31.0457 0 20V20Z" fill="#48B2FF"/>
<path d="M0 20C0 8.95431 8.95431 0 20 0V0C31.0457 0 40 8.95431 40 20V20C40 31.0457 31.0457 40 20 40V40C8.95431 40 0 31.0457 0 20V20Z" fill="#2F80ED"/>
<path d="M11.8862 12.1309C11.7696 12.2447 11.6304 12.4059 11.4662 12.6117C11.4021 12.6922 11.3354 12.7784 11.2662 12.873C11.0307 13.1926 10.8044 13.5188 10.5875 13.8513L10.5762 13.8651C10.0254 14.6713 9.83332 16.1055 10.1587 16.9976L10.1729 17.0338L10.1812 17.0726C10.1896 17.1113 10.2425 17.2922 10.3425 17.5755C10.5179 18.0834 10.7156 18.5833 10.935 19.0738C11.6576 20.7029 12.5857 22.2328 13.6967 23.6263C14.0475 24.0661 14.4178 24.4898 14.8067 24.8963C15.2887 25.399 15.7985 25.8742 16.3337 26.3197C18.0075 27.7067 19.8932 28.8159 21.9187 29.6047C22.2271 29.7213 22.3942 29.7743 22.4387 29.788L22.4638 29.7963L22.4863 29.8047C23.3679 30.1463 24.8196 30.0272 25.6571 29.5434L25.6738 29.5351C25.7321 29.5047 25.8571 29.4351 26.0238 29.3405C26.3133 29.1768 26.5829 29.0155 26.825 28.868C26.9196 28.8097 27.0113 28.7513 27.095 28.6988C27.465 28.4597 27.7208 28.2734 27.8513 28.1401C28.4913 27.4951 28.4938 26.7309 27.8596 26.0918C27.0058 25.233 26.1604 24.3876 25.3429 23.5793C24.7138 22.9563 23.9629 22.9563 23.3346 23.5793C23.1563 23.7572 22.8754 24.0322 22.5221 24.3876L21.2346 25.6693L20.8171 25.4997C20.5617 25.3942 20.3095 25.2811 20.0608 25.1605C19.4352 24.8624 18.8319 24.5197 18.2554 24.1351C17.7437 23.7934 17.2987 23.4372 16.9287 23.0759C16.5229 22.6813 16.1196 22.1672 15.73 21.5501C15.3887 21.0053 15.0831 20.439 14.815 19.8547C14.7068 19.6245 14.6057 19.391 14.5117 19.1547L14.3475 18.7401L15.5433 17.5451C15.8272 17.2626 16.1101 16.9791 16.3921 16.6947C17.0429 16.0413 17.04 15.2909 16.3862 14.6322C15.8329 14.0738 14.2587 12.5005 13.8917 12.1392C13.5829 11.8226 13.235 11.6667 12.89 11.6667C12.5454 11.6667 12.2004 11.8226 11.8858 12.1309H11.8862Z" fill="white"/>
<path opacity="0.5" d="M24.5833 19.1664V19.1647L24.5583 19.1664C24.4563 19.1664 24.3578 19.1289 24.2815 19.0611C24.2053 18.9933 24.1565 18.8998 24.1446 18.7985L24.1417 18.7497C24.0486 18.0154 23.7141 17.3329 23.1907 16.8096C22.6673 16.2863 21.9847 15.9518 21.2504 15.8589C21.1935 15.8588 21.1372 15.8471 21.085 15.8245C21.0328 15.8019 20.9857 15.7689 20.9467 15.7275C20.9077 15.686 20.8775 15.6371 20.8581 15.5836C20.8387 15.5301 20.8304 15.4732 20.8338 15.4164H20.8333V14.5581C20.8395 14.5008 20.8574 14.4454 20.886 14.3953C20.9145 14.3452 20.953 14.3016 20.9991 14.267C21.0452 14.2325 21.098 14.2078 21.154 14.1945C21.2101 14.1812 21.2683 14.1796 21.325 14.1897C23.7188 14.4239 25.6179 16.3456 25.8163 18.7497C25.8125 18.9797 25.6258 19.1664 25.3958 19.1664L25.4167 19.1651V19.1664H24.5833ZM21.25 10.0081C21.2679 10.0081 21.2854 10.0093 21.3029 10.0114C25.9904 10.2481 29.75 14.0064 29.9879 18.6939C29.9959 18.7528 29.9911 18.8127 29.974 18.8696C29.9569 18.9266 29.9279 18.9792 29.8888 19.0239C29.8496 19.0687 29.8014 19.1045 29.7473 19.1291C29.6932 19.1537 29.6344 19.1664 29.575 19.1664L29.5833 19.166V19.1664H28.75V19.1656L28.7375 19.1664C28.6354 19.1664 28.5369 19.1289 28.4607 19.0611C28.3844 18.9933 28.3357 18.8998 28.3237 18.7985L28.3208 18.7497V18.7397C28.1083 14.9372 25.0625 11.8918 21.26 11.6785L21.25 11.6789C21.1942 11.6789 21.139 11.6677 21.0876 11.646C21.0362 11.6243 20.9897 11.5925 20.9509 11.5525C20.912 11.5124 20.8816 11.465 20.8614 11.413C20.8412 11.361 20.8317 11.3055 20.8333 11.2497V10.4164C20.8355 10.3073 20.8804 10.2035 20.9583 10.1271C21.0362 10.0508 21.1409 10.008 21.25 10.0081V10.0081Z" fill="white"/>
</svg>
