<svg width="70" height="70" viewBox="0 0 70 70" fill="none" xmlns="http://www.w3.org/2000/svg">
<g clip-path="url(#clip0)">
<ellipse opacity="0.5" cx="35" cy="34.9502" rx="35" ry="34.3035" fill="black"/>
<path d="M17.7529 23.9033C14.9639 23.9033 13.2207 25.8926 13.2207 29.0645C13.2207 32.2227 14.9229 34.2324 17.7529 34.2324C20.5693 34.2324 22.2646 32.2158 22.2646 29.0645C22.2646 25.8994 20.5557 23.9033 17.7529 23.9033ZM17.7529 25.0381C19.7695 25.0381 21 26.5967 21 29.0645C21 31.5117 19.7764 33.0977 17.7529 33.0977C15.7021 33.0977 14.4854 31.5117 14.4854 29.0645C14.4854 26.5967 15.7432 25.0381 17.7529 25.0381ZM30.2148 26.6309H29.0391V30.9922C29.0391 32.2842 28.3281 33.0566 27.0293 33.0566C25.8535 33.0566 25.3613 32.4414 25.3613 31.1152V26.6309H24.1855V31.4023C24.1855 33.1455 25.0469 34.1299 26.7012 34.1299C27.8291 34.1299 28.6152 33.665 28.9844 32.8447H29.0938V34H30.2148V26.6309ZM32.9219 24.7236V26.6309H31.7324V27.6152H32.9219V32.0859C32.9219 33.4941 33.5303 34.0547 35.0479 34.0547C35.2803 34.0547 35.5059 34.0273 35.7383 33.9863V32.9951C35.5195 33.0156 35.4033 33.0225 35.1914 33.0225C34.4258 33.0225 34.0977 32.6533 34.0977 31.7852V27.6152H35.7383V26.6309H34.0977V24.7236H32.9219ZM44.4951 34.1299C46.5938 34.1299 47.8926 32.6807 47.8926 30.3154C47.8926 27.9434 46.5938 26.501 44.4951 26.501C42.3965 26.501 41.0977 27.9434 41.0977 30.3154C41.0977 32.6807 42.3965 34.1299 44.4951 34.1299ZM44.4951 33.0703C43.1006 33.0703 42.3145 32.0586 42.3145 30.3154C42.3145 28.5654 43.1006 27.5605 44.4951 27.5605C45.8896 27.5605 46.6758 28.5654 46.6758 30.3154C46.6758 32.0586 45.8896 33.0703 44.4951 33.0703ZM50.2305 34H51.4062V27.6152H53.0947V26.6309H51.4062V25.8447C51.4062 25.0381 51.7617 24.6279 52.6094 24.6279C52.8213 24.6279 53.0195 24.6348 53.1631 24.6621V23.7051C52.917 23.6572 52.6572 23.6367 52.3701 23.6367C50.9688 23.6367 50.2305 24.3408 50.2305 25.8105V26.6309H49.0068V27.6152H50.2305V34ZM16.9805 48.4229C17.1104 50.125 18.5527 51.2324 20.6445 51.2324C22.9004 51.2324 24.3291 50.0771 24.3291 48.2656C24.3291 46.8164 23.5088 46.0234 21.4648 45.5107L20.4326 45.2373C19.0723 44.8887 18.5322 44.4443 18.5322 43.6719C18.5322 42.6738 19.4004 42.0176 20.7129 42.0176C21.9434 42.0176 22.7773 42.6191 22.9482 43.6309H24.1855C24.083 42.0381 22.6611 40.9033 20.7539 40.9033C18.6689 40.9033 17.2676 42.0381 17.2676 43.7129C17.2676 45.1143 18.04 45.9209 19.8242 46.3721L21.0889 46.7002C22.4492 47.042 23.0645 47.5752 23.0645 48.416C23.0645 49.3936 22.0869 50.1113 20.7607 50.1113C19.3594 50.1113 18.375 49.4551 18.2246 48.4229H16.9805ZM26.7217 41.7236V43.6309H25.5322V44.6152H26.7217V49.0859C26.7217 50.4941 27.3301 51.0547 28.8477 51.0547C29.0801 51.0547 29.3057 51.0273 29.5381 50.9863V49.9951C29.3193 50.0156 29.2031 50.0225 28.9912 50.0225C28.2256 50.0225 27.8975 49.6533 27.8975 48.7852V44.6152H29.5381V43.6309H27.8975V41.7236H26.7217ZM34.2344 51.1299C36.333 51.1299 37.6318 49.6807 37.6318 47.3154C37.6318 44.9434 36.333 43.501 34.2344 43.501C32.1357 43.501 30.8369 44.9434 30.8369 47.3154C30.8369 49.6807 32.1357 51.1299 34.2344 51.1299ZM34.2344 50.0703C32.8398 50.0703 32.0537 49.0586 32.0537 47.3154C32.0537 45.5654 32.8398 44.5605 34.2344 44.5605C35.6289 44.5605 36.415 45.5654 36.415 47.3154C36.415 49.0586 35.6289 50.0703 34.2344 50.0703ZM45.5752 45.8867C45.3701 44.5742 44.2764 43.501 42.4854 43.501C40.4209 43.501 39.1084 44.9912 39.1084 47.2881C39.1084 49.6328 40.4277 51.1299 42.4922 51.1299C44.2627 51.1299 45.3633 50.1318 45.5752 48.7783H44.3857C44.167 49.6123 43.4766 50.0703 42.4854 50.0703C41.1729 50.0703 40.3252 48.9902 40.3252 47.2881C40.3252 45.6201 41.1592 44.5605 42.4854 44.5605C43.5449 44.5605 44.1943 45.1553 44.3857 45.8867H45.5752ZM48.665 46.8506H48.5557V40.7051H47.3799V51H48.5557V48.2041L49.2598 47.5479L52.0215 51H53.5186L50.1348 46.7891L53.3066 43.6309H51.8643L48.665 46.8506Z" fill="white"/>
</g>
<defs>
<clipPath id="clip0">
<rect width="70" height="68.6069" fill="white" transform="translate(0 0.646759)"/>
</clipPath>
</defs>
</svg>
