<svg width="32" height="32" viewBox="0 0 32 32" fill="none" xmlns="http://www.w3.org/2000/svg">
<path fill-rule="evenodd" clip-rule="evenodd" d="M16.5 2.5C9.0436 2.5 3 8.54674 3 16C3 23.4533 9.04674 29.5 16.5 29.5C23.9533 29.5 30 23.4564 30 16C30 8.5436 23.9564 2.5 16.5 2.5Z" fill="#52C41A"/>
<path fill-rule="evenodd" clip-rule="evenodd" d="M22.9832 12.732L15.9349 19.7803L15.7089 20.0063C15.081 20.6342 14.0637 20.6342 13.4358 20.0063L10.4815 17.052C10.1048 16.6753 10.1048 16.0662 10.4815 15.6895C10.8583 15.3127 11.4673 15.3127 11.8441 15.6895L14.0041 17.8495C14.318 18.1634 14.8266 18.1634 15.1406 17.8495L21.6175 11.3695C21.9942 10.9927 22.6033 10.9927 22.98 11.3695C23.3568 11.7462 23.3568 12.3553 22.9832 12.732Z" fill="white"/>
</svg>
